<svg width="106" height="17" viewBox="0 0 106 17" fill="none" xmlns="http://www.w3.org/2000/svg">
<g clip-path="url(#clip0_208_8313)">
<path fill-rule="evenodd" clip-rule="evenodd" d="M96.6126 14.8104L91.3993 16.7278L91.5514 11.0072L88.1773 6.47168L93.4846 4.85356L96.6126 0.133057L99.7406 4.85356L105.048 6.47168L101.674 11.0072L101.826 16.7278L96.6126 14.8104Z" fill="#FFCC00"/>
<path fill-rule="evenodd" clip-rule="evenodd" d="M53.3772 14.8106L48.1639 16.728L48.316 11.0074L44.9419 6.47176L50.2492 4.85363L53.3772 0.133057L56.5052 4.85363L61.8125 6.47176L58.4384 11.0074L58.5905 16.728L53.3772 14.8106Z" fill="#FFCC00"/>
<path fill-rule="evenodd" clip-rule="evenodd" d="M74.9944 14.8106L69.7811 16.728L69.9332 11.0074L66.5591 6.47176L71.8664 4.85363L74.9944 0.133057L78.1224 4.85363L83.4297 6.47176L80.0556 11.0074L80.2077 16.728L74.9944 14.8106Z" fill="#FFCC00"/>
<path fill-rule="evenodd" clip-rule="evenodd" d="M31.7581 14.8106L26.5448 16.728L26.6969 11.0074L23.3228 6.47176L28.6301 4.85363L31.7581 0.133057L34.8861 4.85363L40.1934 6.47176L36.8193 11.0074L36.9714 16.728L31.7581 14.8106Z" fill="#FFCC00"/>
<path fill-rule="evenodd" clip-rule="evenodd" d="M10.1419 14.8106L4.92856 16.728L5.08069 11.0074L1.70656 6.47176L7.01389 4.85363L10.1419 0.133057L13.2699 4.85363L18.5772 6.47176L15.2031 11.0074L15.3552 16.728L10.1419 14.8106Z" fill="#FFCC00"/>
</g>
<defs>
<clipPath id="clip0_208_8313">
<rect width="105" height="17" fill="white" transform="translate(0.5)"/>
</clipPath>
</defs>
</svg>
